<svg width="128" height="36" viewBox="0 0 128 36" fill="none" xmlns="http://www.w3.org/2000/svg">
<path d="M7.584 26.168C6.352 26.168 5.248 25.968 4.272 25.568C3.296 25.168 2.512 24.576 1.92 23.792C1.344 23.008 1.04 22.064 1.008 20.96H5.376C5.44 21.584 5.656 22.064 6.024 22.4C6.392 22.72 6.872 22.88 7.464 22.88C8.072 22.88 8.552 22.744 8.904 22.472C9.256 22.184 9.432 21.792 9.432 21.296C9.432 20.88 9.288 20.536 9 20.264C8.728 19.992 8.384 19.768 7.968 19.592C7.568 19.416 6.992 19.216 6.24 18.992C5.152 18.656 4.264 18.32 3.576 17.984C2.888 17.648 2.296 17.152 1.8 16.496C1.304 15.84 1.056 14.984 1.056 13.928C1.056 12.36 1.624 11.136 2.76 10.256C3.896 9.36 5.376 8.912 7.2 8.912C9.056 8.912 10.552 9.36 11.688 10.256C12.824 11.136 13.432 12.368 13.512 13.952H9.072C9.04 13.408 8.84 12.984 8.472 12.68C8.104 12.36 7.632 12.2 7.056 12.2C6.56 12.2 6.16 12.336 5.856 12.608C5.552 12.864 5.4 13.24 5.4 13.736C5.4 14.28 5.656 14.704 6.168 15.008C6.68 15.312 7.48 15.64 8.568 15.992C9.656 16.36 10.536 16.712 11.208 17.048C11.896 17.384 12.488 17.872 12.984 18.512C13.48 19.152 13.728 19.976 13.728 20.984C13.728 21.944 13.48 22.816 12.984 23.6C12.504 24.384 11.8 25.008 10.872 25.472C9.944 25.936 8.848 26.168 7.584 26.168ZM24.4376 26L20.3576 20.384V26H16.2536V8.24H20.3576V18.056L24.4136 12.608H29.4776L23.9096 19.328L29.5256 26H24.4376ZM33.1536 11.216C32.4336 11.216 31.8416 11.008 31.3776 10.592C30.9296 10.16 30.7056 9.632 30.7056 9.008C30.7056 8.368 30.9296 7.84 31.3776 7.424C31.8416 6.992 32.4336 6.776 33.1536 6.776C33.8576 6.776 34.4336 6.992 34.8816 7.424C35.3456 7.84 35.5776 8.368 35.5776 9.008C35.5776 9.632 35.3456 10.16 34.8816 10.592C34.4336 11.008 33.8576 11.216 33.1536 11.216ZM35.1936 12.608V26H31.0896V12.608H35.1936ZM42.2717 8.24V26H38.1677V8.24H42.2717ZM49.3498 8.24V26H45.2458V8.24H49.3498Z" fill="white"/>
<path d="M63.5059 26.168C62.2739 26.168 61.1699 25.968 60.1939 25.568C59.2179 25.168 58.4339 24.576 57.8419 23.792C57.2659 23.008 56.9619 22.064 56.9299 20.96H61.2979C61.3619 21.584 61.5779 22.064 61.9459 22.4C62.3139 22.72 62.7939 22.88 63.3859 22.88C63.9939 22.88 64.4739 22.744 64.8259 22.472C65.1779 22.184 65.3539 21.792 65.3539 21.296C65.3539 20.88 65.2099 20.536 64.9219 20.264C64.6499 19.992 64.3059 19.768 63.8899 19.592C63.4899 19.416 62.9139 19.216 62.1619 18.992C61.0739 18.656 60.1859 18.32 59.4979 17.984C58.8099 17.648 58.2179 17.152 57.7219 16.496C57.2259 15.84 56.9779 14.984 56.9779 13.928C56.9779 12.36 57.5459 11.136 58.6819 10.256C59.8179 9.36 61.2979 8.912 63.1219 8.912C64.9779 8.912 66.4739 9.36 67.6099 10.256C68.7459 11.136 69.3539 12.368 69.4339 13.952H64.9939C64.9619 13.408 64.7619 12.984 64.3939 12.68C64.0259 12.36 63.5539 12.2 62.9779 12.2C62.4819 12.2 62.0819 12.336 61.7779 12.608C61.4739 12.864 61.3219 13.24 61.3219 13.736C61.3219 14.28 61.5779 14.704 62.0899 15.008C62.6019 15.312 63.4019 15.64 64.4899 15.992C65.5779 16.36 66.4579 16.712 67.1299 17.048C67.8179 17.384 68.4099 17.872 68.9059 18.512C69.4019 19.152 69.6499 19.976 69.6499 20.984C69.6499 21.944 69.4019 22.816 68.9059 23.6C68.4259 24.384 67.7219 25.008 66.7939 25.472C65.8659 25.936 64.7699 26.168 63.5059 26.168ZM80.4075 12.464C81.9435 12.464 83.1755 12.976 84.1035 14C85.0315 15.008 85.4955 16.4 85.4955 18.176V26H81.4155V18.728C81.4155 17.832 81.1835 17.136 80.7195 16.64C80.2555 16.144 79.6315 15.896 78.8475 15.896C78.0635 15.896 77.4395 16.144 76.9755 16.64C76.5115 17.136 76.2795 17.832 76.2795 18.728V26H72.1755V8.24H76.2795V14.408C76.6955 13.816 77.2635 13.344 77.9835 12.992C78.7035 12.64 79.5115 12.464 80.4075 12.464ZM94.4434 26.192C93.1314 26.192 91.9474 25.912 90.8914 25.352C89.8514 24.792 89.0274 23.992 88.4194 22.952C87.8274 21.912 87.5314 20.696 87.5314 19.304C87.5314 17.928 87.8354 16.72 88.4434 15.68C89.0514 14.624 89.8834 13.816 90.9394 13.256C91.9954 12.696 93.1794 12.416 94.4914 12.416C95.8034 12.416 96.9874 12.696 98.0434 13.256C99.0994 13.816 99.9314 14.624 100.539 15.68C101.147 16.72 101.451 17.928 101.451 19.304C101.451 20.68 101.139 21.896 100.515 22.952C99.9074 23.992 99.0674 24.792 97.9954 25.352C96.9394 25.912 95.7554 26.192 94.4434 26.192ZM94.4434 22.64C95.2274 22.64 95.8914 22.352 96.4354 21.776C96.9954 21.2 97.2754 20.376 97.2754 19.304C97.2754 18.232 97.0034 17.408 96.4594 16.832C95.9314 16.256 95.2754 15.968 94.4914 15.968C93.6914 15.968 93.0274 16.256 92.4994 16.832C91.9714 17.392 91.7074 18.216 91.7074 19.304C91.7074 20.376 91.9634 21.2 92.4754 21.776C93.0034 22.352 93.6594 22.64 94.4434 22.64ZM109.725 26.192C108.413 26.192 107.229 25.912 106.173 25.352C105.133 24.792 104.309 23.992 103.701 22.952C103.109 21.912 102.813 20.696 102.813 19.304C102.813 17.928 103.117 16.72 103.725 15.68C104.333 14.624 105.165 13.816 106.221 13.256C107.277 12.696 108.461 12.416 109.773 12.416C111.085 12.416 112.269 12.696 113.325 13.256C114.381 13.816 115.213 14.624 115.821 15.68C116.429 16.72 116.733 17.928 116.733 19.304C116.733 20.68 116.421 21.896 115.797 22.952C115.189 23.992 114.349 24.792 113.277 25.352C112.221 25.912 111.037 26.192 109.725 26.192ZM109.725 22.64C110.509 22.64 111.173 22.352 111.717 21.776C112.277 21.2 112.557 20.376 112.557 19.304C112.557 18.232 112.285 17.408 111.741 16.832C111.213 16.256 110.557 15.968 109.773 15.968C108.973 15.968 108.309 16.256 107.781 16.832C107.253 17.392 106.989 18.216 106.989 19.304C106.989 20.376 107.245 21.2 107.757 21.776C108.285 22.352 108.941 22.64 109.725 22.64ZM126.374 22.52V26H124.286C122.798 26 121.638 25.64 120.806 24.92C119.974 24.184 119.558 22.992 119.558 21.344V16.016H117.926V12.608H119.558V9.344H123.662V12.608H126.35V16.016H123.662V21.392C123.662 21.792 123.758 22.08 123.95 22.256C124.142 22.432 124.462 22.52 124.91 22.52H126.374Z" fill="#CB8461"/>
</svg>
